<svg id="Layer_1" data-name="Layer 1" xmlns="http://www.w3.org/2000/svg" viewBox="0 0 219 208.35"><title>Artboard 1</title><ellipse cx="109.5" cy="104.85" rx="109.5" ry="103.5" style="fill:#fadcd7"/><path d="M0,104.85v103.5H219V1.35H0ZM124.06,7c15.39,1.9,31.73,6.26,43.8,11.86A79.28,79.28,0,0,1,211,69.27c2,7,2.49,12,2.49,25.51,0,14.55-.36,18.24-3.08,27.86-10.18,36.25-36.82,63.44-73.51,75.19C99,210,61.2,203.43,34.68,180,7.1,155.65-2,122.53,9,86.72,21,47.67,52,15,84.05,7.5,92,5.71,110.92,5.38,124.06,7Z" style="fill:#19191e"/></svg>